<!--?xml version="1.0" encoding="utf-8"?-->
<!-- Generator: Adobe Illustrator 18.1.1, SVG Export Plug-In . SVG Version: 6.00 Build 0)  -->

<svg version="1.1" id="_x31_0" xmlns="http://www.w3.org/2000/svg" xmlns:xlink="http://www.w3.org/1999/xlink" x="0px" y="0px" viewBox="0 0 512 512" style="width: 256px; height: 256px; opacity: 1;" xml:space="preserve">
<style type="text/css">
	.st0{fill:#374149;}
</style>
<g>
	<path class="st0" d="M49.809,103.409l25.039,7.36l95.685,95.68l29.039-29.121c-1.121-5.199-1.922-10.481-2.48-15.68L109.412,74.05
		l-7.039-24.402c-3.043-8.641-12.481-18.161-20.961-21.2L29.168,0.049L0.372,28.768l28.477,53.36
		C31.892,90.768,41.329,100.288,49.809,103.409z" style="fill: rgb(0, 191, 255);"></path>
	<path class="st0" d="M398.453,313.65c-9.281,1.519-18.801,2.32-28.398,2.32c-11.922,0-23.762-1.199-35.36-3.602l-53.614,53.614
		l-0.114,0.118l0,0l-0.117,0.114l135.845,135.841c11.598,11.598,28.637,13.278,38.078,3.84l50.802-50.802
		c9.442-9.442,7.758-26.481-3.762-38.082L398.453,313.65z" style="fill: rgb(0, 191, 255);"></path>
	<path class="st0" d="M325.152,276.758c49.407,16.406,105.986,4.969,145.302-34.344c34.626-34.63,47.563-82.708,38.918-127.435
		c-0.195-1.027-0.344-2.062-0.558-3.086c-0.172-0.797-0.406-1.578-0.594-2.371c-1.321-5.722-2.934-11.41-4.993-17.004l-0.054,0.054
		c-0.023-0.054-0.039-0.113-0.058-0.168l-74.743,74.743l-72.723-11.286l-11.25-72.723l52.485-52.485l21.942-21.848
		c-0.023-0.007-0.046-0.015-0.07-0.023l0.125-0.125C368.578-9.768,309.98,1.221,269.62,41.581
		c-39.317,39.313-50.75,95.93-34.344,145.337L18.559,403.634c-24.703,24.7-24.703,65.138,0,89.841c24.739,24.7,65.138,24.7,89.876,0
		l216.682-216.717H325.152z M80.782,458.01c-7.398,7.359-19.359,7.359-26.718,0c-7.402-7.402-7.402-19.36,0-26.758
		c7.359-7.363,19.32-7.363,26.718,0C88.146,438.65,88.146,450.608,80.782,458.01z" style="fill: rgb(0, 191, 255);"></path>
</g>
</svg>
